<?xml version="1.0" standalone="no"?>
<!DOCTYPE svg PUBLIC "-//W3C//DTD SVG 20010904//EN"
 "http://www.w3.org/TR/2001/REC-SVG-20010904/DTD/svg10.dtd">
<svg version="1.0" xmlns="http://www.w3.org/2000/svg"
 width="512.000000pt" height="512.000000pt" viewBox="0 0 512.000000 512.000000"
 preserveAspectRatio="xMidYMid meet">
<metadata>
Created by potrace 1.14, written by Peter Selinger 2001-2017
</metadata>
<g transform="translate(0.000000,512.000000) scale(0.100000,-0.100000)"
fill="#000000" stroke="none">
<path d="M1255 4947 c-67 -23 -101 -44 -147 -96 -59 -66 -78 -126 -78 -252 l0
-99 -173 0 c-240 0 -339 -29 -445 -130 -59 -57 -90 -103 -123 -185 l-24 -60
-3 -1740 c-2 -1266 0 -1756 8 -1800 34 -179 169 -324 345 -370 52 -13 284 -15
1950 -15 2054 0 1941 -3 2053 54 110 56 201 171 234 295 16 61 17 194 17 1793
1 1221 -2 1743 -10 1780 -37 180 -187 330 -367 367 -29 6 -142 11 -251 11
l-199 0 -4 118 c-5 137 -26 190 -100 258 -68 63 -121 79 -263 79 -111 0 -124
-2 -177 -28 -65 -32 -122 -90 -151 -156 -15 -35 -22 -74 -25 -158 l-5 -113
-782 0 -782 0 -6 108 c-3 59 -13 128 -22 154 -23 65 -85 131 -153 165 -50 25
-70 28 -167 30 -70 2 -124 -2 -150 -10z m263 -167 c56 -34 72 -73 72 -176 l0
-91 -202 2 -203 3 -3 66 c-4 83 10 136 46 171 39 39 55 44 162 44 78 1 101 -3
128 -19z m2323 -27 l39 -42 0 -99 0 -99 -200 1 -200 1 0 90 c0 102 16 140 72
176 29 17 47 20 141 17 l108 -3 40 -42z m690 -434 c68 -32 120 -82 157 -152
l27 -52 0 -1765 0 -1765 -25 -50 c-35 -72 -105 -138 -173 -164 l-58 -21 -1894
0 c-1893 0 -1894 0 -1950 21 -67 25 -141 94 -175 164 l-25 50 0 1760 0 1760
26 56 c28 59 84 121 134 147 81 42 23 41 2005 39 l1895 -2 56 -26z"/>
<path d="M1670 4150 l0 -131 143 3 142 3 0 125 0 125 -142 3 -143 3 0 -131z"/>
<path d="M720 3560 l0 -650 370 0 370 0 0 130 0 130 -215 0 -215 0 0 520 0
520 -155 0 -155 0 0 -650z"/>
<path d="M3100 4030 l0 -120 -55 0 -55 0 0 -115 0 -115 55 0 55 0 0 -288 c0
-320 6 -364 61 -426 45 -52 106 -71 219 -70 52 1 113 7 135 15 l40 14 3 108 3
107 -68 0 c-37 0 -73 4 -80 8 -27 17 -33 70 -33 298 l0 234 90 0 90 0 0 115 0
115 -90 0 -90 0 0 120 0 120 -140 0 -140 0 0 -120z"/>
<path d="M2419 3920 c-185 -31 -281 -179 -250 -386 24 -163 90 -222 285 -255
108 -18 143 -67 92 -126 -24 -28 -25 -28 -138 -27 -89 1 -125 5 -172 22 -33
12 -61 22 -63 22 -1 0 -3 -49 -3 -109 l0 -109 48 -20 c138 -59 356 -56 479 6
109 56 164 212 133 377 -25 135 -93 194 -256 222 -122 21 -144 33 -144 82 0
63 24 76 139 75 60 0 116 -7 150 -17 30 -9 56 -17 58 -17 2 0 3 49 3 109 l0
109 -40 16 c-79 31 -221 43 -321 26z"/>
<path d="M3990 3920 c-109 -19 -177 -67 -222 -157 -28 -58 -32 -74 -32 -156 0
-208 71 -290 283 -327 113 -19 149 -66 97 -127 -24 -28 -25 -28 -138 -27 -89
1 -125 5 -172 22 -33 12 -61 22 -63 22 -1 0 -3 -49 -3 -109 l0 -109 48 -20
c138 -59 356 -56 479 6 109 56 164 211 133 377 -25 133 -93 193 -251 221 -132
23 -149 33 -149 88 0 58 27 71 139 70 60 0 116 -7 150 -17 30 -9 58 -17 63
-17 4 0 8 48 8 106 l0 105 -44 19 c-76 34 -222 48 -326 30z"/>
<path d="M1670 3410 l0 -500 140 0 140 0 0 500 0 500 -140 0 -140 0 0 -500z"/>
<path d="M642 2659 c-109 -54 -131 -193 -43 -280 89 -89 227 -66 281 46 74
154 -85 310 -238 234z m153 -55 c65 -43 67 -145 4 -199 -56 -46 -152 -27 -185
37 -20 39 -14 110 12 140 42 47 116 57 169 22z"/>
<path d="M1597 2646 c-48 -18 -76 -42 -93 -83 -31 -72 -2 -153 66 -192 l38
-21 1417 0 c1566 0 1459 -4 1507 63 61 86 17 208 -87 236 -28 8 -455 11 -1425
11 -1142 -1 -1392 -3 -1423 -14z"/>
<path d="M1047 2056 c-125 -45 -158 -207 -61 -298 113 -106 297 -24 296 131
-1 83 -51 149 -130 171 -47 13 -58 12 -105 -4z m123 -62 c85 -51 76 -182 -17
-220 -71 -30 -154 14 -168 89 -20 104 94 184 185 131z"/>
<path d="M2342 2023 c-47 -23 -75 -67 -80 -127 -5 -60 21 -107 78 -140 35 -21
47 -21 1040 -24 715 -2 1020 0 1057 8 56 12 107 57 119 106 10 39 -2 100 -25
132 -46 66 17 62 -1123 62 -931 0 -1036 -2 -1066 -17z"/>
<path d="M1415 1435 c-75 -40 -112 -111 -101 -190 6 -35 17 -56 49 -90 78 -81
173 -81 253 -1 33 33 44 51 49 90 10 63 -16 128 -68 169 -46 38 -133 48 -182
22z m162 -79 c74 -81 21 -206 -87 -206 -43 0 -87 25 -105 60 -68 131 94 254
192 146z"/>
<path d="M3134 1419 c-126 -37 -141 -218 -24 -280 33 -18 71 -19 685 -19 l650
0 39 23 c100 57 101 188 3 261 -28 21 -36 21 -675 23 -368 1 -660 -2 -678 -8z"/>
<path d="M1810 824 c-74 -32 -110 -86 -110 -164 0 -61 17 -96 64 -138 84 -73
215 -45 269 59 27 51 19 136 -17 184 -51 66 -135 90 -206 59z m145 -76 c85
-78 34 -211 -80 -211 -96 0 -151 90 -109 179 20 43 56 63 112 64 34 0 49 -6
77 -32z"/>
<path d="M3875 791 c-96 -59 -107 -168 -26 -243 l40 -38 283 0 c265 0 285 1
316 20 94 57 96 196 3 257 -33 23 -40 23 -310 23 -251 0 -279 -2 -306 -19z"/>
</g>
</svg>
