<?xml version="1.0" standalone="no"?>
<!DOCTYPE svg PUBLIC "-//W3C//DTD SVG 20010904//EN"
 "http://www.w3.org/TR/2001/REC-SVG-20010904/DTD/svg10.dtd">
<svg version="1.0" xmlns="http://www.w3.org/2000/svg"
 width="700.000000pt" height="700.000000pt" viewBox="0 0 700.000000 700.000000"
 preserveAspectRatio="xMidYMid meet">
<metadata>
Created by potrace 1.14, written by Peter Selinger 2001-2017
</metadata>
<g transform="translate(0.000000,700.000000) scale(0.100000,-0.100000)"
fill="#000000" stroke="none">
<path d="M1375 6984 c-792 -123 -1375 -803 -1375 -1603 l0 -131 3501 0 3502 0
-6 178 c-8 266 -53 445 -168 677 -79 160 -171 287 -304 420 -254 253 -557 407
-910 460 -144 22 -4100 21 -4240 -1z"/>
<path d="M164 4960 c-32 -13 -54 -50 -54 -91 0 -52 48 -93 99 -85 94 15 111
136 26 172 -39 16 -42 16 -71 4z"/>
<path d="M455 4961 c-48 -21 -73 -77 -54 -122 12 -29 54 -59 83 -59 47 0 96
51 96 99 0 27 -49 79 -80 85 -14 3 -34 1 -45 -3z"/>
<path d="M734 4956 c-63 -28 -70 -121 -11 -157 43 -26 70 -24 106 7 80 67 0
192 -95 150z"/>
<path d="M1018 4954 c-53 -28 -64 -94 -24 -141 19 -22 32 -28 66 -28 96 0 126
126 40 170 -36 18 -47 18 -82 -1z"/>
<path d="M1315 4961 c-34 -14 -57 -48 -58 -87 -1 -29 5 -42 31 -65 35 -32 57
-35 97 -17 27 12 55 54 55 83 0 32 -30 73 -61 84 -36 13 -37 13 -64 2z"/>
<path d="M1594 4954 c-31 -15 -54 -50 -54 -80 0 -28 28 -70 55 -82 40 -18 62
-15 97 17 79 70 -3 193 -98 145z"/>
<path d="M1878 4954 c-53 -28 -64 -94 -24 -141 19 -22 32 -28 66 -28 96 0 126
126 40 170 -36 18 -47 18 -82 -1z"/>
<path d="M2174 4960 c-32 -13 -54 -50 -54 -91 0 -52 48 -93 99 -85 94 15 108
144 20 175 -37 13 -37 13 -65 1z"/>
<path d="M2465 4961 c-48 -21 -73 -77 -54 -122 12 -30 54 -59 84 -59 53 0 102
62 90 113 -13 50 -76 86 -120 68z"/>
<path d="M2745 4956 c-83 -37 -65 -158 26 -172 28 -5 41 -1 67 21 80 67 2 194
-93 151z"/>
<path d="M3028 4954 c-53 -28 -64 -94 -24 -141 19 -22 32 -28 66 -28 96 0 126
126 40 170 -36 18 -47 18 -82 -1z"/>
<path d="M3325 4961 c-66 -27 -79 -105 -27 -152 35 -32 57 -35 97 -17 27 12
55 54 55 83 0 32 -30 73 -61 84 -36 13 -37 13 -64 2z"/>
<path d="M3605 4956 c-29 -13 -55 -51 -55 -82 0 -28 28 -70 55 -82 40 -18 62
-15 97 17 78 70 -1 190 -97 147z"/>
<path d="M3888 4954 c-53 -28 -64 -94 -24 -141 19 -22 32 -28 66 -28 96 0 126
126 40 170 -36 18 -47 18 -82 -1z"/>
<path d="M4184 4960 c-32 -13 -54 -50 -54 -91 0 -52 48 -93 99 -85 94 15 108
144 20 175 -37 13 -37 13 -65 1z"/>
<path d="M4474 4960 c-28 -11 -64 -58 -64 -82 0 -47 50 -98 96 -98 52 0 101
62 89 113 -13 51 -76 86 -121 67z"/>
<path d="M4752 4955 c-81 -36 -62 -157 29 -171 80 -13 132 88 77 150 -29 32
-65 39 -106 21z"/>
<path d="M5038 4954 c-53 -28 -64 -94 -24 -141 19 -22 32 -28 66 -28 96 0 126
126 40 170 -36 18 -47 18 -82 -1z"/>
<path d="M5335 4961 c-66 -27 -79 -105 -27 -152 35 -32 57 -35 97 -17 27 12
55 54 55 82 0 31 -24 66 -55 81 -37 17 -42 17 -70 6z"/>
<path d="M5615 4956 c-29 -13 -55 -51 -55 -82 0 -28 28 -70 55 -82 40 -18 62
-15 97 17 26 23 32 36 31 66 -2 67 -67 108 -128 81z"/>
<path d="M5898 4954 c-53 -28 -64 -94 -24 -141 19 -22 32 -28 66 -28 96 0 126
126 40 170 -36 18 -47 18 -82 -1z"/>
<path d="M6200 4963 c-38 -14 -60 -47 -60 -89 0 -35 5 -47 31 -68 37 -31 63
-33 106 -6 62 37 50 135 -18 159 -35 12 -37 12 -59 4z"/>
<path d="M6484 4960 c-28 -11 -64 -58 -64 -82 0 -47 50 -98 96 -98 55 0 105
70 85 121 -18 49 -74 77 -117 59z"/>
<path d="M6763 4956 c-83 -37 -64 -158 28 -172 80 -13 132 88 77 150 -29 32
-64 39 -105 22z"/>
<path d="M1495 4212 l-110 -57 -3 -68 -3 -68 100 51 c56 27 103 50 106 50 3 0
5 -180 5 -400 l0 -399 -112 -3 -113 -3 -3 -58 -3 -57 283 2 283 3 0 55 0 55
-102 3 -103 3 0 474 0 475 -57 0 c-51 -1 -72 -8 -168 -58z"/>
<path d="M761 3843 c-137 -72 -81 -273 72 -260 100 9 159 120 107 204 -39 65
-117 89 -179 56z"/>
<path d="M2390 3515 l0 -75 2305 0 2305 0 0 75 0 75 -2305 0 -2305 0 0 -75z"/>
<path d="M1452 2468 l-74 -21 7 -51 c4 -28 9 -54 11 -57 2 -4 32 2 66 13 83
27 190 28 241 3 22 -10 51 -36 65 -58 24 -36 27 -50 26 -116 -4 -163 -70 -273
-356 -593 -73 -82 -78 -91 -78 -133 l0 -45 295 0 295 0 0 55 0 55 -220 0 -221
0 117 133 c147 166 186 215 228 286 74 126 97 248 67 354 -17 61 -79 130 -145
164 -71 37 -217 42 -324 11z"/>
<path d="M764 2071 c-27 -12 -72 -66 -80 -97 -31 -123 121 -221 220 -143 73
57 74 151 2 218 -28 26 -104 38 -142 22z"/>
<path d="M2390 1735 l0 -75 2305 0 2305 0 0 75 0 75 -2305 0 -2305 0 0 -75z"/>
</g>
</svg>
